<svg width="20" height="20" viewBox="0 0 20 20" fill="none" xmlns="http://www.w3.org/2000/svg">
<path d="M10 10.8333V17.5L6.66669 14.1666" stroke="white" stroke-width="2" stroke-linecap="round" stroke-linejoin="round"/>
<path d="M10 17.5L13.3333 14.1667" stroke="white" stroke-width="2" stroke-linecap="round" stroke-linejoin="round"/>
<path d="M3.66084 12.7242C2.98022 12.1288 2.44736 11.3833 2.10431 10.5466C1.76126 9.70992 1.61744 8.80493 1.68419 7.90311C1.75094 7.00129 2.02644 6.12734 2.48893 5.35027C2.95142 4.57321 3.58824 3.9143 4.3491 3.4256C5.10995 2.9369 5.97401 2.63178 6.87303 2.53433C7.77205 2.43689 8.68141 2.54979 9.5293 2.86413C10.3772 3.17846 11.1404 3.68562 11.7586 4.34555C12.3769 5.00547 12.8332 5.8001 13.0917 6.66667H14.5833C15.3934 6.66657 16.1817 6.92878 16.8303 7.41405C17.4789 7.89933 17.953 8.58159 18.1815 9.35874C18.41 10.1359 18.3807 10.9661 18.0981 11.7253C17.8154 12.4844 17.2945 13.1316 16.6133 13.57" stroke="white" stroke-width="2" stroke-linecap="round" stroke-linejoin="round"/>
</svg>