<svg width="194" height="42" viewBox="0 0 194 42" fill="none" xmlns="http://www.w3.org/2000/svg">
<circle cx="37.5" cy="8" r="4.5" fill="#006DFF"/>
<circle cx="37.5" cy="34" r="4.5" fill="#013CC6"/>
<path d="M42 21C42 18.5147 39.9853 16.5 37.5 16.5H16.5C14.0147 16.5 12 18.5147 12 21C12 23.4853 14.0147 25.5 16.5 25.5H37.5C39.9853 25.5 42 23.4853 42 21Z" fill="#5CB9FC"/>
<path d="M0 8C0 5.51472 2.01472 3.5 4.5 3.5H24.5C26.9853 3.5 29 5.51472 29 8C29 10.4853 26.9853 12.5 24.5 12.5H4.5C2.01472 12.5 0 10.4853 0 8Z" fill="#006DFF"/>
<path d="M0 34C0 31.5147 2.01472 29.5 4.5 29.5H24.5C26.9853 29.5 29 31.5147 29 34C29 36.4853 26.9853 38.5 24.5 38.5H4.5C2.01472 38.5 0 36.4853 0 34Z" fill="#013CC6"/>
<circle cx="4.5" cy="4.5" r="4.5" transform="matrix(-1 0 0 1 9 16.5)" fill="#5CB9FC"/>
<path d="M60.68 17.16C59.48 17.16 58.5467 16.7867 57.88 16.04C57.2267 15.2933 56.9 14.1867 56.9 12.72V8.3C56.9 6.82 57.2733 5.69333 58.02 4.92C58.7667 4.13333 59.8267 3.74 61.2 3.74C62.1467 3.74 62.94 3.92 63.58 4.28C64.22 4.62667 64.6933 5.12667 65 5.78C65.3067 6.42 65.42 7.17333 65.34 8.04C65.3267 8.18667 65.26 8.26 65.14 8.26H63.3C63.1533 8.26 63.0867 8.18 63.1 8.02C63.1533 7.31333 63.02 6.76 62.7 6.36C62.3933 5.96 61.9067 5.76 61.24 5.76C60.5333 5.76 60.0067 5.96667 59.66 6.38C59.3133 6.79333 59.14 7.44667 59.14 8.34V12.6C59.14 13.4933 59.3 14.14 59.62 14.54C59.94 14.94 60.4533 15.14 61.16 15.14C61.84 15.14 62.3533 14.9333 62.7 14.52C63.0467 14.1067 63.22 13.5 63.22 12.7V11.9H61.34C61.2067 11.9 61.14 11.8267 61.14 11.68V10.4C61.14 10.2533 61.2067 10.18 61.34 10.18H65.2C65.3333 10.18 65.4 10.2533 65.4 10.4V14.08C65.4 14.6533 65.4067 15.1533 65.42 15.58C65.4467 16.0067 65.4867 16.4 65.54 16.76C65.5667 16.92 65.5 17 65.34 17H63.88C63.76 17 63.6867 16.9333 63.66 16.8C63.6333 16.64 63.6067 16.4533 63.58 16.24C63.5667 16.0133 63.5533 15.7667 63.54 15.5H63.52C63.36 15.8333 63.1467 16.1267 62.88 16.38C62.6133 16.6333 62.3 16.8267 61.94 16.96C61.58 17.0933 61.16 17.16 60.68 17.16ZM67.8078 17C67.6745 17 67.6078 16.9267 67.6078 16.78V4.12C67.6078 3.97333 67.6745 3.9 67.8078 3.9H74.0678C74.2011 3.9 74.2678 3.97333 74.2678 4.12V5.7C74.2678 5.84667 74.2011 5.92 74.0678 5.92H69.8478V9.4H73.7078C73.8411 9.4 73.9078 9.47333 73.9078 9.62V11.1C73.9078 11.2467 73.8411 11.32 73.7078 11.32H69.8478V14.98H74.0678C74.2011 14.98 74.2678 15.0533 74.2678 15.2V16.78C74.2678 16.9267 74.2011 17 74.0678 17H67.8078ZM76.4597 17C76.3397 17 76.2797 16.9267 76.2797 16.78V4.12C76.2797 3.97333 76.3464 3.9 76.4797 3.9H79.0197C79.1397 3.9 79.213 3.95333 79.2397 4.06L81.5797 10.58C81.7264 10.94 81.8664 11.3333 81.9997 11.76C82.1464 12.1733 82.2797 12.58 82.3997 12.98C82.533 13.3667 82.6397 13.72 82.7197 14.04H82.7597C82.733 13.68 82.7064 13.2667 82.6797 12.8C82.6664 12.3333 82.653 11.86 82.6397 11.38C82.6264 10.9 82.6197 10.4867 82.6197 10.14V4.12C82.6197 3.97333 82.6864 3.9 82.8197 3.9H84.5597C84.693 3.9 84.7597 3.97333 84.7597 4.12V16.78C84.7597 16.9267 84.693 17 84.5597 17H82.0597C81.953 17 81.873 16.9467 81.8197 16.84L79.4997 10.5C79.273 9.88667 79.0664 9.27333 78.8797 8.66C78.693 8.03333 78.5197 7.45333 78.3597 6.92H78.3197C78.3464 7.30667 78.3664 7.74667 78.3797 8.24C78.393 8.72 78.3997 9.2 78.3997 9.68C78.413 10.16 78.4197 10.6 78.4197 11V16.78C78.4197 16.9267 78.353 17 78.2197 17H76.4597ZM87.1633 17C87.0299 17 86.9633 16.9267 86.9633 16.78V4.12C86.9633 3.97333 87.0299 3.9 87.1633 3.9H93.4233C93.5566 3.9 93.6233 3.97333 93.6233 4.12V5.7C93.6233 5.84667 93.5566 5.92 93.4233 5.92H89.2033V9.4H93.0633C93.1966 9.4 93.2633 9.47333 93.2633 9.62V11.1C93.2633 11.2467 93.1966 11.32 93.0633 11.32H89.2033V14.98H93.4233C93.5566 14.98 93.6233 15.0533 93.6233 15.2V16.78C93.6233 16.9267 93.5566 17 93.4233 17H87.1633ZM102.08 17.16C100.667 17.16 99.6535 16.8133 99.0402 16.12C98.4402 15.4267 98.1935 14.48 98.3002 13.28C98.3135 13.0933 98.3868 13 98.5202 13H100.32C100.453 13 100.513 13.0933 100.5 13.28C100.473 13.9067 100.593 14.3867 100.86 14.72C101.14 15.04 101.567 15.2 102.14 15.2C102.713 15.2 103.133 15.08 103.4 14.84C103.667 14.5867 103.8 14.2 103.8 13.68C103.8 13.4 103.76 13.1533 103.68 12.94C103.613 12.7267 103.493 12.5333 103.32 12.36C103.147 12.1733 102.92 12 102.64 11.84L100.48 10.56C99.7335 10.1067 99.1935 9.61333 98.8602 9.08C98.5402 8.53333 98.3868 7.85333 98.4002 7.04C98.4135 5.97333 98.7202 5.16 99.3202 4.6C99.9335 4.02667 100.84 3.74 102.04 3.74C103.36 3.74 104.347 4.06667 105 4.72C105.653 5.37333 105.927 6.3 105.82 7.5C105.793 7.7 105.727 7.8 105.62 7.8H103.78C103.647 7.8 103.587 7.7 103.6 7.5C103.653 6.95333 103.547 6.52 103.28 6.2C103.013 5.86667 102.613 5.7 102.08 5.7C101.627 5.7 101.273 5.81333 101.02 6.04C100.78 6.25333 100.653 6.58667 100.64 7.04C100.627 7.45333 100.713 7.8 100.9 8.08C101.1 8.34667 101.413 8.6 101.84 8.84L103.94 10.08C104.46 10.3867 104.867 10.7067 105.16 11.04C105.467 11.3733 105.687 11.7533 105.82 12.18C105.967 12.5933 106.033 13.0933 106.02 13.68C106.02 14.8 105.707 15.66 105.08 16.26C104.453 16.86 103.453 17.16 102.08 17.16ZM107.984 17C107.85 17 107.784 16.9267 107.784 16.78V4.12C107.784 3.97333 107.85 3.9 107.984 3.9H114.244C114.377 3.9 114.444 3.97333 114.444 4.12V5.7C114.444 5.84667 114.377 5.92 114.244 5.92H110.024V9.4H113.884C114.017 9.4 114.084 9.47333 114.084 9.62V11.1C114.084 11.2467 114.017 11.32 113.884 11.32H110.024V14.98H114.244C114.377 14.98 114.444 15.0533 114.444 15.2V16.78C114.444 16.9267 114.377 17 114.244 17H107.984ZM118.775 17C118.642 17 118.575 16.9267 118.575 16.78V5.92H115.955C115.822 5.92 115.755 5.84667 115.755 5.7V4.12C115.755 3.97333 115.822 3.9 115.955 3.9H123.455C123.589 3.9 123.655 3.97333 123.655 4.12V5.7C123.655 5.84667 123.589 5.92 123.455 5.92H120.835V16.78C120.835 16.9267 120.769 17 120.635 17H118.775ZM57.44 38C57.3467 38 57.3 37.94 57.3 37.82V25.08C57.3 24.96 57.3533 24.9 57.46 24.9H63C63.1067 24.9 63.16 24.96 63.16 25.08V26.06C63.16 26.1933 63.1067 26.26 63 26.26H58.74V30.88H62.44C62.5467 30.88 62.6 30.94 62.6 31.06V31.98C62.6 32.1133 62.5467 32.18 62.44 32.18H58.74V37.82C58.74 37.94 58.6867 38 58.58 38H57.44ZM68.5177 38.16C67.2643 38.16 66.311 37.8133 65.6577 37.12C65.0043 36.4267 64.6777 35.4133 64.6777 34.08V28.84C64.6777 27.4933 65.0043 26.4733 65.6577 25.78C66.311 25.0867 67.2643 24.74 68.5177 24.74C69.7843 24.74 70.7443 25.0867 71.3977 25.78C72.051 26.4733 72.3777 27.4933 72.3777 28.84V34.08C72.3777 35.4133 72.051 36.4267 71.3977 37.12C70.7443 37.8133 69.7843 38.16 68.5177 38.16ZM68.5177 36.82C69.3043 36.82 69.9043 36.5933 70.3177 36.14C70.731 35.6733 70.9377 34.9667 70.9377 34.02V28.9C70.9377 27.94 70.731 27.2333 70.3177 26.78C69.9043 26.3133 69.3043 26.08 68.5177 26.08C67.7443 26.08 67.151 26.3133 66.7377 26.78C66.3243 27.2333 66.1177 27.94 66.1177 28.9V34.02C66.1177 34.9667 66.3243 35.6733 66.7377 36.14C67.151 36.5933 67.7443 36.82 68.5177 36.82ZM78.4209 38.16C77.1676 38.16 76.2276 37.8 75.6009 37.08C74.9743 36.3467 74.6609 35.2533 74.6609 33.8V25.08C74.6609 24.96 74.7209 24.9 74.8409 24.9H75.9409C76.0476 24.9 76.1009 24.96 76.1009 25.08V33.82C76.1009 34.8333 76.2943 35.5867 76.6809 36.08C77.0676 36.5733 77.6476 36.82 78.4209 36.82C79.1943 36.82 79.7676 36.5733 80.1409 36.08C80.5276 35.5867 80.7209 34.8333 80.7209 33.82V25.08C80.7209 24.96 80.7743 24.9 80.8809 24.9H81.9809C82.1009 24.9 82.1609 24.96 82.1609 25.08V33.82C82.1609 35.2333 81.8409 36.3133 81.2009 37.06C80.5743 37.7933 79.6476 38.16 78.4209 38.16ZM84.8033 38C84.7099 38 84.6633 37.94 84.6633 37.82V25.08C84.6633 24.96 84.7166 24.9 84.8233 24.9H86.7033C86.8099 24.9 86.8699 24.94 86.8833 25.02L89.6833 32.7C89.8433 33.0867 89.9966 33.4933 90.1433 33.92C90.2899 34.3467 90.4233 34.76 90.5433 35.16C90.6766 35.56 90.7899 35.9267 90.8833 36.26H90.9233C90.9099 35.9 90.8966 35.5067 90.8833 35.08C90.8699 34.6533 90.8566 34.2267 90.8433 33.8C90.8433 33.36 90.8433 32.9667 90.8433 32.62V25.08C90.8433 24.96 90.8966 24.9 91.0033 24.9H92.1033C92.2099 24.9 92.2633 24.96 92.2633 25.08V37.82C92.2633 37.94 92.2099 38 92.1033 38H90.2433C90.1633 38 90.1033 37.96 90.0633 37.88L87.3233 30.44C87.0699 29.76 86.8433 29.1 86.6433 28.46C86.4433 27.82 86.2499 27.2133 86.0633 26.64H86.0233C86.0366 27.04 86.0433 27.4667 86.0433 27.92C86.0433 28.3733 86.0433 28.8267 86.0433 29.28C86.0566 29.72 86.0633 30.1467 86.0633 30.56V37.82C86.0633 37.94 86.0166 38 85.9233 38H84.8033ZM95.0386 38C94.9186 38 94.8586 37.94 94.8586 37.82V25.08C94.8586 24.96 94.9119 24.9 95.0186 24.9H97.5986C99.2253 24.9 100.439 25.3533 101.239 26.26C102.039 27.1533 102.439 28.5133 102.439 30.34V31.96C102.439 34 102.045 35.52 101.259 36.52C100.485 37.5067 99.2853 38 97.6586 38H95.0386ZM96.2986 36.68H97.5386C98.7386 36.68 99.6119 36.3133 100.159 35.58C100.719 34.8333 100.999 33.66 100.999 32.06V30.26C100.999 28.8733 100.719 27.8533 100.159 27.2C99.5986 26.5467 98.7119 26.22 97.4986 26.22H96.2986V36.68ZM103.268 38C103.148 38 103.108 37.9333 103.148 37.8L106.448 25.04C106.475 24.9467 106.542 24.9 106.648 24.9H108.188C108.282 24.9 108.348 24.9467 108.388 25.04L111.728 37.8C111.755 37.9333 111.708 38 111.588 38H110.368C110.302 38 110.242 37.9533 110.188 37.86L108.008 29.06C107.902 28.62 107.795 28.1867 107.688 27.76C107.595 27.32 107.502 26.88 107.408 26.44H107.368C107.275 26.88 107.182 27.3133 107.088 27.74C106.995 28.1667 106.895 28.6 106.788 29.04L104.628 37.86C104.602 37.9533 104.542 38 104.448 38H103.268ZM105.108 34.84L105.408 33.5H109.368L109.708 34.84H105.108ZM114.383 38C114.276 38 114.223 37.94 114.223 37.82V26.26H111.523C111.416 26.26 111.363 26.1933 111.363 26.06V25.08C111.363 24.96 111.416 24.9 111.523 24.9H118.363C118.469 24.9 118.523 24.96 118.523 25.08V26.06C118.523 26.1933 118.469 26.26 118.363 26.26H115.663V37.82C115.663 37.94 115.609 38 115.503 38H114.383ZM120.468 38C120.361 38 120.308 37.94 120.308 37.82V25.08C120.308 24.96 120.361 24.9 120.468 24.9H121.588C121.694 24.9 121.748 24.96 121.748 25.08V37.82C121.748 37.94 121.694 38 121.588 38H120.468ZM127.971 38.16C126.717 38.16 125.764 37.8133 125.111 37.12C124.457 36.4267 124.131 35.4133 124.131 34.08V28.84C124.131 27.4933 124.457 26.4733 125.111 25.78C125.764 25.0867 126.717 24.74 127.971 24.74C129.237 24.74 130.197 25.0867 130.851 25.78C131.504 26.4733 131.831 27.4933 131.831 28.84V34.08C131.831 35.4133 131.504 36.4267 130.851 37.12C130.197 37.8133 129.237 38.16 127.971 38.16ZM127.971 36.82C128.757 36.82 129.357 36.5933 129.771 36.14C130.184 35.6733 130.391 34.9667 130.391 34.02V28.9C130.391 27.94 130.184 27.2333 129.771 26.78C129.357 26.3133 128.757 26.08 127.971 26.08C127.197 26.08 126.604 26.3133 126.191 26.78C125.777 27.2333 125.571 27.94 125.571 28.9V34.02C125.571 34.9667 125.777 35.6733 126.191 36.14C126.604 36.5933 127.197 36.82 127.971 36.82ZM134.354 38C134.261 38 134.214 37.94 134.214 37.82V25.08C134.214 24.96 134.267 24.9 134.374 24.9H136.254C136.361 24.9 136.421 24.94 136.434 25.02L139.234 32.7C139.394 33.0867 139.547 33.4933 139.694 33.92C139.841 34.3467 139.974 34.76 140.094 35.16C140.227 35.56 140.341 35.9267 140.434 36.26H140.474C140.461 35.9 140.447 35.5067 140.434 35.08C140.421 34.6533 140.407 34.2267 140.394 33.8C140.394 33.36 140.394 32.9667 140.394 32.62V25.08C140.394 24.96 140.447 24.9 140.554 24.9H141.654C141.761 24.9 141.814 24.96 141.814 25.08V37.82C141.814 37.94 141.761 38 141.654 38H139.794C139.714 38 139.654 37.96 139.614 37.88L136.874 30.44C136.621 29.76 136.394 29.1 136.194 28.46C135.994 27.82 135.801 27.2133 135.614 26.64H135.574C135.587 27.04 135.594 27.4667 135.594 27.92C135.594 28.3733 135.594 28.8267 135.594 29.28C135.607 29.72 135.614 30.1467 135.614 30.56V37.82C135.614 37.94 135.567 38 135.474 38H134.354ZM147.533 38C147.426 38 147.373 37.94 147.373 37.82L147.593 25.08C147.593 24.96 147.646 24.9 147.753 24.9H149.513C149.606 24.9 149.673 24.9467 149.713 25.04L152.253 32.88L154.773 25.04C154.813 24.9467 154.88 24.9 154.973 24.9H156.733C156.84 24.9 156.893 24.96 156.893 25.08L157.113 37.82C157.113 37.94 157.06 38 156.953 38H155.853C155.746 38 155.693 37.94 155.693 37.82L155.553 29.52C155.553 29.0933 155.553 28.6533 155.553 28.2C155.566 27.7333 155.58 27.2733 155.593 26.82H155.553C155.433 27.2467 155.3 27.68 155.153 28.12C155.02 28.56 154.88 28.9933 154.733 29.42L152.453 36.08C152.44 36.1733 152.38 36.22 152.273 36.22H152.193C152.086 36.22 152.026 36.1733 152.013 36.08L149.713 29.36C149.566 28.9333 149.426 28.5067 149.293 28.08C149.173 27.6533 149.053 27.2333 148.933 26.82H148.893C148.92 27.26 148.933 27.7133 148.933 28.18C148.933 28.6333 148.933 29.0667 148.933 29.48L148.793 37.82C148.793 37.94 148.74 38 148.633 38H147.533ZM163.088 38.16C161.835 38.16 160.881 37.8133 160.228 37.12C159.575 36.4267 159.248 35.4133 159.248 34.08V28.84C159.248 27.4933 159.575 26.4733 160.228 25.78C160.881 25.0867 161.835 24.74 163.088 24.74C164.355 24.74 165.315 25.0867 165.968 25.78C166.621 26.4733 166.948 27.4933 166.948 28.84V34.08C166.948 35.4133 166.621 36.4267 165.968 37.12C165.315 37.8133 164.355 38.16 163.088 38.16ZM163.088 36.82C163.875 36.82 164.475 36.5933 164.888 36.14C165.301 35.6733 165.508 34.9667 165.508 34.02V28.9C165.508 27.94 165.301 27.2333 164.888 26.78C164.475 26.3133 163.875 26.08 163.088 26.08C162.315 26.08 161.721 26.3133 161.308 26.78C160.895 27.2333 160.688 27.94 160.688 28.9V34.02C160.688 34.9667 160.895 35.6733 161.308 36.14C161.721 36.5933 162.315 36.82 163.088 36.82ZM169.511 38C169.391 38 169.331 37.94 169.331 37.82V25.08C169.331 24.96 169.385 24.9 169.491 24.9H172.071C173.698 24.9 174.911 25.3533 175.711 26.26C176.511 27.1533 176.911 28.5133 176.911 30.34V31.96C176.911 34 176.518 35.52 175.731 36.52C174.958 37.5067 173.758 38 172.131 38H169.511ZM170.771 36.68H172.011C173.211 36.68 174.085 36.3133 174.631 35.58C175.191 34.8333 175.471 33.66 175.471 32.06V30.26C175.471 28.8733 175.191 27.8533 174.631 27.2C174.071 26.5467 173.185 26.22 171.971 26.22H170.771V36.68ZM179.355 38C179.235 38 179.175 37.94 179.175 37.82V25.08C179.175 24.96 179.228 24.9 179.335 24.9H184.875C184.982 24.9 185.035 24.96 185.035 25.08V26.06C185.035 26.1933 184.982 26.26 184.875 26.26H180.615V30.68H184.515C184.622 30.68 184.675 30.74 184.675 30.86V31.8C184.675 31.92 184.622 31.98 184.515 31.98H180.615V36.64H184.875C184.982 36.64 185.035 36.7067 185.035 36.84V37.82C185.035 37.94 184.982 38 184.875 38H179.355ZM187.577 38C187.471 38 187.417 37.94 187.417 37.82V25.08C187.417 24.96 187.471 24.9 187.577 24.9H188.697C188.751 24.9 188.791 24.92 188.817 24.96C188.844 24.9867 188.857 25.0267 188.857 25.08V36.64H192.997C193.104 36.64 193.157 36.7067 193.157 36.84V37.82C193.157 37.94 193.104 38 192.997 38H187.577Z" fill="#013CC6"/>
</svg>
