<svg width="1440" height="587" viewBox="0 0 1440 587" fill="none" xmlns="http://www.w3.org/2000/svg" xmlns:xlink="http://www.w3.org/1999/xlink">
<path opacity="0.3" d="M1020 0H1780V305H1020V0Z" fill="url(#pattern0_2021_118)"/>
<path opacity="0.3" d="M468 282H-292V587H468V282Z" fill="url(#pattern1_2021_118)"/>
<g filter="url(#filter0_fn_2021_118)">
<circle cx="75.5" cy="75.5" r="75.5" transform="matrix(1 0 0 -1 -43 197)" fill="url(#paint0_linear_2021_118)"/>
</g>
<defs>
<filter id="filter0_fn_2021_118" x="-88.22" y="0.779999" width="241.44" height="241.44" filterUnits="userSpaceOnUse" color-interpolation-filters="sRGB">
<feFlood flood-opacity="0" result="BackgroundImageFix"/>
<feBlend mode="normal" in="SourceGraphic" in2="BackgroundImageFix" result="shape"/>
<feGaussianBlur stdDeviation="22.61" result="effect1_foregroundBlur_2021_118"/>
<feTurbulence type="fractalNoise" baseFrequency="1 1" stitchTiles="stitch" numOctaves="3" result="noise" seed="6191" />
<feColorMatrix in="noise" type="luminanceToAlpha" result="alphaNoise" />
<feComponentTransfer in="alphaNoise" result="coloredNoise1">
<feFuncA type="discrete" tableValues="0 0 0 0 0 0 0 0 0 1 1 1 1 1 1 1 1 1 1 1 1 1 1 1 1 1 1 1 1 1 1 1 1 1 1 1 1 1 1 1 0 0 0 0 0 0 0 0 0 0 0 0 0 0 0 0 0 0 0 0 0 0 0 0 0 0 0 0 0 0 0 0 0 0 0 0 0 0 0 0 0 0 0 0 0 0 0 0 0 0 0 0 0 0 0 0 0 0 0 0 "/>
</feComponentTransfer>
<feComposite operator="in" in2="effect1_foregroundBlur_2021_118" in="coloredNoise1" result="noise1Clipped" />
<feComponentTransfer in="alphaNoise" result="coloredNoise2">
<feFuncA type="discrete" tableValues="0 0 0 0 0 0 0 0 0 0 0 0 0 0 0 0 0 0 0 0 0 0 0 0 0 0 0 0 0 0 0 0 0 0 0 0 0 0 0 0 0 0 0 0 0 0 0 0 0 0 0 0 0 0 0 0 0 0 0 0 1 1 1 1 1 1 1 1 1 1 1 1 1 1 1 1 1 1 1 1 1 1 1 1 1 1 1 1 1 1 1 0 0 0 0 0 0 0 0 0 "/>
</feComponentTransfer>
<feComposite operator="in" in2="effect1_foregroundBlur_2021_118" in="coloredNoise2" result="noise2Clipped" />
<feFlood flood-color="#013CC6" result="color1Flood" />
<feComposite operator="in" in2="noise1Clipped" in="color1Flood" result="color1" />
<feFlood flood-color="#DCEBFF" result="color2Flood" />
<feComposite operator="in" in2="noise2Clipped" in="color2Flood" result="color2" />
<feMerge result="effect2_noise_2021_118">
<feMergeNode in="effect1_foregroundBlur_2021_118" />
<feMergeNode in="color1" />
<feMergeNode in="color2" />
</feMerge>
</filter>
<linearGradient id="paint0_linear_2021_118" x1="75.5" y1="0" x2="75.5" y2="151" gradientUnits="userSpaceOnUse">
<stop stop-color="#013CC6"/>
<stop offset="1" stop-color="#006DFF"/>
</linearGradient>
<pattern id="pattern0_2021_118" patternUnits="userSpaceOnUse" patternTransform="matrix(660.4 0 0 334.4 1020 76.5)" preserveAspectRatio="none" viewBox="0 0 660.4 334.4" width="1" height="1">
<use xlink:href="#pattern0_2021_118_inner" transform="translate(-660.4 0)"/>
<g id="pattern0_2021_118_inner">
<circle cx="35" cy="27" r="6" fill="#006DFF"/>
<path d="M50 27H198" stroke="#006DFF"/>
<circle cx="213" cy="27" r="6" fill="#006DFF"/>
<circle cx="6" cy="6" r="6" transform="matrix(-1 0 0 1 397 119)" fill="#006DFF"/>
<path d="M369 125L319 125" stroke="#006DFF"/>
<circle cx="6" cy="6" r="6" transform="matrix(-1 0 0 1 310 119)" fill="#006DFF"/>
<circle cx="6" cy="6" r="6" transform="matrix(-1 0 0 1 397 21)" fill="#006DFF"/>
<path d="M369 27L319 27" stroke="#006DFF"/>
<circle cx="6" cy="6" r="6" transform="matrix(-1 0 0 1 310 21)" fill="#006DFF"/>
<circle cx="6" cy="6" r="6" transform="matrix(-1 0 0 1 484 119)" fill="#006DFF"/>
<path d="M456 125L406 125" stroke="#006DFF"/>
<circle cx="6" cy="6" r="6" transform="matrix(-1 0 0 1 397 119)" fill="#006DFF"/>
<circle cx="126" cy="125" r="6" fill="#006DFF"/>
<path d="M148 125L198 125" stroke="#006DFF"/>
<circle cx="213" cy="125" r="6" fill="#006DFF"/>
<circle cx="35" cy="125" r="6" fill="#006DFF"/>
<path d="M50 125L105 125" stroke="#006DFF"/>
<path d="M149 76L198 76" stroke="#006DFF"/>
<circle cx="213" cy="76" r="6" fill="#006DFF"/>
<circle cx="126" cy="76" r="6" fill="#006DFF"/>
<path d="M213 40L213 63" stroke="#006DFF"/>
<path d="M213 90L213 113" stroke="#006DFF"/>
<path d="M391 90L391 113" stroke="#006DFF"/>
<path d="M228 76H376" stroke="#006DFF"/>
<circle cx="391" cy="76" r="6" fill="#006DFF"/>
</g>
<use xlink:href="#pattern0_2021_118_inner" transform="translate(-330.2 167.2)"/>
<use xlink:href="#pattern0_2021_118_inner" transform="translate(330.2 167.2)"/>
</pattern><pattern id="pattern1_2021_118" patternUnits="userSpaceOnUse" patternTransform="matrix(-660.4 0 0 334.4 468 358.5)" preserveAspectRatio="none" viewBox="0 0 660.4 334.4" width="1" height="1">
<use xlink:href="#pattern1_2021_118_inner" transform="translate(-660.4 0)"/>
<g id="pattern1_2021_118_inner">
<circle cx="35" cy="27" r="6" fill="#006DFF"/>
<path d="M50 27H198" stroke="#006DFF"/>
<circle cx="213" cy="27" r="6" fill="#006DFF"/>
<circle cx="6" cy="6" r="6" transform="matrix(-1 0 0 1 397 119)" fill="#006DFF"/>
<path d="M369 125L319 125" stroke="#006DFF"/>
<circle cx="6" cy="6" r="6" transform="matrix(-1 0 0 1 310 119)" fill="#006DFF"/>
<circle cx="6" cy="6" r="6" transform="matrix(-1 0 0 1 397 21)" fill="#006DFF"/>
<path d="M369 27L319 27" stroke="#006DFF"/>
<circle cx="6" cy="6" r="6" transform="matrix(-1 0 0 1 310 21)" fill="#006DFF"/>
<circle cx="6" cy="6" r="6" transform="matrix(-1 0 0 1 484 119)" fill="#006DFF"/>
<path d="M456 125L406 125" stroke="#006DFF"/>
<circle cx="6" cy="6" r="6" transform="matrix(-1 0 0 1 397 119)" fill="#006DFF"/>
<circle cx="126" cy="125" r="6" fill="#006DFF"/>
<path d="M148 125L198 125" stroke="#006DFF"/>
<circle cx="213" cy="125" r="6" fill="#006DFF"/>
<circle cx="35" cy="125" r="6" fill="#006DFF"/>
<path d="M50 125L105 125" stroke="#006DFF"/>
<path d="M149 76L198 76" stroke="#006DFF"/>
<circle cx="213" cy="76" r="6" fill="#006DFF"/>
<circle cx="126" cy="76" r="6" fill="#006DFF"/>
<path d="M213 40L213 63" stroke="#006DFF"/>
<path d="M213 90L213 113" stroke="#006DFF"/>
<path d="M391 90L391 113" stroke="#006DFF"/>
<path d="M228 76H376" stroke="#006DFF"/>
<circle cx="391" cy="76" r="6" fill="#006DFF"/>
</g>
<use xlink:href="#pattern1_2021_118_inner" transform="translate(-330.2 167.2)"/>
<use xlink:href="#pattern1_2021_118_inner" transform="translate(330.2 167.2)"/>
</pattern></defs>
</svg>