<svg width="42" height="35" viewBox="0 0 42 35" fill="none" xmlns="http://www.w3.org/2000/svg">
<circle cx="37.5" cy="4.5" r="4.5" fill="#006DFF"/>
<circle cx="37.5" cy="30.5" r="4.5" fill="#013CC6"/>
<path d="M42 17.5C42 15.0147 39.9853 13 37.5 13H16.5C14.0147 13 12 15.0147 12 17.5C12 19.9853 14.0147 22 16.5 22H37.5C39.9853 22 42 19.9853 42 17.5Z" fill="#5CB9FC"/>
<path d="M0 4.5C0 2.01472 2.01472 0 4.5 0H24.5C26.9853 0 29 2.01472 29 4.5C29 6.98528 26.9853 9 24.5 9H4.5C2.01472 9 0 6.98528 0 4.5Z" fill="#006DFF"/>
<path d="M0 30.5C0 28.0147 2.01472 26 4.5 26H24.5C26.9853 26 29 28.0147 29 30.5C29 32.9853 26.9853 35 24.5 35H4.5C2.01472 35 0 32.9853 0 30.5Z" fill="#013CC6"/>
<circle cx="4.5" cy="4.5" r="4.5" transform="matrix(-1 0 0 1 9 13)" fill="#5CB9FC"/>
</svg>
